<?xml version="1.0" encoding="UTF-8" standalone="no"?>
<svg
   xmlns:dc="http://purl.org/dc/elements/1.1/"
   xmlns:cc="http://creativecommons.org/ns#"
   xmlns:rdf="http://www.w3.org/1999/02/22-rdf-syntax-ns#"
   xmlns:svg="http://www.w3.org/2000/svg"
   xmlns="http://www.w3.org/2000/svg"
   xmlns:sodipodi="http://sodipodi.sourceforge.net/DTD/sodipodi-0.dtd"
   xmlns:inkscape="http://www.inkscape.org/namespaces/inkscape"
   viewBox="0 0 24 24"
   width="24"
   height="24"
   version="1.1"
   id="svg8"
   sodipodi:docname="edit-semiselect-all.svg"
   inkscape:version="0.92.5 (2060ec1f9f, 2020-04-08)">
  <metadata
     id="metadata12">
    <rdf:RDF>
      <cc:Work
         rdf:about="">
        <dc:format>image/svg+xml</dc:format>
        <dc:type
           rdf:resource="http://purl.org/dc/dcmitype/StillImage" />
        <dc:title></dc:title>
      </cc:Work>
    </rdf:RDF>
  </metadata>
  <sodipodi:namedview
     pagecolor="#ffffff"
     bordercolor="#666666"
     borderopacity="1"
     objecttolerance="10"
     gridtolerance="10"
     guidetolerance="10"
     inkscape:pageopacity="0"
     inkscape:pageshadow="2"
     inkscape:window-width="1920"
     inkscape:window-height="1009"
     id="namedview10"
     showgrid="false"
     inkscape:zoom="9.8333333"
     inkscape:cx="-0.31284828"
     inkscape:cy="9.9893198"
     inkscape:window-x="0"
     inkscape:window-y="0"
     inkscape:window-maximized="1"
     inkscape:current-layer="svg8" />
  <defs
     id="defs3051">
    <style
       type="text/css"
       id="current-color-scheme">
      .ColorScheme-Text {
        color:#232629;
      }
      </style>
  </defs>
  <g
     transform="translate(1,1)"
     id="g6">
    <path
       style="fill:currentColor;fill-opacity:1;stroke:none"
       d="m3 3v1 3h1v-3h3v-1h-3-1m12 0v1h3v3h1v-4h-4zm-10 2v5h5v-5h-5m7 0v5h5v-5h-5m-6 1h3v3h-3v-3m7 0h3v3h-3v-3zm-8 6v5h5v-5h-5m7 0v5h5v-5h-5m-6 1h3v3h-3v-3m7 0h3v3h-3v-3m-10 2v4h1 3v-1h-3v-3h-1m15 0v3h-3v1h4v-1-3h-1"
       class="ColorScheme-Text"
       id="path4" />
  </g>
  <rect
     style="fill:#333333;fill-opacity:1;stroke-width:0.83333337"
     id="rect3717"
     width="2.5"
     height="2.5"
     x="7.25"
     y="7.25" />
  <rect
     style="fill:#333333;fill-opacity:1;stroke-width:0.83333337"
     id="rect3717-3"
     width="2.5"
     height="2.5"
     x="14.25"
     y="7.25" />
  <rect
     style="fill:#333333;fill-opacity:1;stroke-width:0.83333337"
     id="rect3717-6"
     width="2.5"
     height="2.5"
     x="7.25"
     y="14.25" />
  <rect
     style="fill:#333333;fill-opacity:1;stroke-width:0.83333337"
     id="rect3717-3-7"
     width="2.5"
     height="2.5"
     x="14.25"
     y="14.25" />
</svg>
